<svg width="18" height="18" viewBox="0 0 18 18" fill="none" xmlns="http://www.w3.org/2000/svg">
<path d="M16.2288 4.33164L11.0499 0.708259C9.63835 -0.280753 7.47151 -0.226807 6.1139 0.825142L1.60939 4.34063C0.710291 5.04193 0 6.4805 0 7.61332V13.8171C0 16.1098 1.86114 17.98 4.15385 17.98H13.8461C16.1389 17.98 18 16.1188 18 13.8261V7.7302C18 6.51646 17.2178 5.02395 16.2288 4.33164ZM9.67431 14.3836C9.67431 14.7522 9.36862 15.0579 8.99999 15.0579C8.63136 15.0579 8.32566 14.7522 8.32566 14.3836V11.6863C8.32566 11.3176 8.63136 11.0119 8.99999 11.0119C9.36862 11.0119 9.67431 11.3176 9.67431 11.6863V14.3836Z" fill="white"/>
</svg>
