<svg width="28" height="28" viewBox="0 0 28 28" fill="none" xmlns="http://www.w3.org/2000/svg">
<g filter="url(#filter0_d_6_9)">
<rect x="4" width="20" height="20" fill="url(#paint0_linear_6_9)" shape-rendering="crispEdges"/>
<rect x="4.5" y="0.5" width="19" height="19" stroke="black" shape-rendering="crispEdges"/>
</g>
<path d="M17.4231 6.87039C17.2105 6.65775 16.958 6.4891 16.6802 6.37407C16.4024 6.25905 16.1046 6.1999 15.8038 6.20001C15.5031 6.20013 15.2054 6.2595 14.9276 6.37473C14.6499 6.48997 14.3975 6.65881 14.185 6.87161L13.9077 7.15235L13.6326 6.87222L13.6308 6.87043C13.4183 6.65789 13.166 6.48929 12.8883 6.37427C12.6106 6.25924 12.313 6.20004 12.0124 6.20004C11.7118 6.20004 11.4142 6.25924 11.1365 6.37427C10.8588 6.48929 10.6065 6.65789 10.3939 6.87043L10.2704 6.99399C9.84114 7.42323 9.6 8.0054 9.6 8.61243C9.6 9.21947 9.84114 9.80164 10.2704 10.2309L13.5315 13.4919L13.8997 13.8778L13.9085 13.869L13.9181 13.8785L14.2631 13.5145L17.5467 10.2308C17.9753 9.80124 18.216 9.2192 18.216 8.61238C18.216 8.00556 17.9753 7.42351 17.5467 6.99393L17.4231 6.87039ZM17.142 9.82622L13.9085 13.0598L10.675 9.82622C10.353 9.50429 10.1722 9.06766 10.1722 8.61239C10.1722 8.15711 10.353 7.72049 10.675 7.39856L10.7985 7.275C11.1203 6.95323 11.5567 6.77238 12.0117 6.77221C12.4668 6.77204 12.9033 6.95256 13.2253 7.27408L13.9064 7.96765L14.5908 7.275C14.7502 7.11559 14.9395 6.98915 15.1478 6.90288C15.356 6.81661 15.5793 6.7722 15.8047 6.7722C16.0301 6.7722 16.2533 6.81661 16.4616 6.90288C16.6699 6.98915 16.8591 7.11559 17.0185 7.275L17.1421 7.39854C17.4635 7.72073 17.644 8.15727 17.644 8.61239C17.644 9.06751 17.4635 9.50404 17.142 9.82622Z" fill="white"/>
<path d="M17.4231 6.87039C17.2105 6.65775 16.958 6.4891 16.6802 6.37407C16.4024 6.25905 16.1046 6.1999 15.8038 6.20001C15.5031 6.20013 15.2054 6.2595 14.9276 6.37473C14.6499 6.48997 14.3975 6.65881 14.185 6.87161L13.9077 7.15235L13.6326 6.87222L13.6308 6.87043C13.4183 6.65789 13.166 6.48929 12.8883 6.37427C12.6106 6.25924 12.313 6.20004 12.0124 6.20004C11.7118 6.20004 11.4142 6.25924 11.1365 6.37427C10.8588 6.48929 10.6065 6.65789 10.3939 6.87043L10.2704 6.99399C9.84114 7.42323 9.6 8.0054 9.6 8.61243C9.6 9.21947 9.84114 9.80164 10.2704 10.2309L13.5315 13.4919L13.8997 13.8778L13.9085 13.869L13.9181 13.8785L14.2631 13.5145L17.5467 10.2308C17.9753 9.80124 18.216 9.2192 18.216 8.61238C18.216 8.00556 17.9753 7.42351 17.5467 6.99393L17.4231 6.87039ZM17.142 9.82622L13.9085 13.0598L10.675 9.82622C10.353 9.50429 10.1722 9.06766 10.1722 8.61239C10.1722 8.15711 10.353 7.72049 10.675 7.39856L10.7985 7.275C11.1203 6.95323 11.5567 6.77238 12.0117 6.77221C12.4668 6.77204 12.9033 6.95256 13.2253 7.27408L13.9064 7.96765L14.5908 7.275C14.7502 7.11559 14.9395 6.98915 15.1478 6.90288C15.356 6.81661 15.5793 6.7722 15.8047 6.7722C16.0301 6.7722 16.2533 6.81661 16.4616 6.90288C16.6699 6.98915 16.8591 7.11559 17.0185 7.275L17.1421 7.39854C17.4635 7.72073 17.644 8.15727 17.644 8.61239C17.644 9.06751 17.4635 9.50404 17.142 9.82622Z" stroke="white"/>
<defs>
<filter id="filter0_d_6_9" x="0" y="0" width="28" height="28" filterUnits="userSpaceOnUse" color-interpolation-filters="sRGB">
<feFlood flood-opacity="0" result="BackgroundImageFix"/>
<feColorMatrix in="SourceAlpha" type="matrix" values="0 0 0 0 0 0 0 0 0 0 0 0 0 0 0 0 0 0 127 0" result="hardAlpha"/>
<feOffset dy="4"/>
<feGaussianBlur stdDeviation="2"/>
<feComposite in2="hardAlpha" operator="out"/>
<feColorMatrix type="matrix" values="0 0 0 0 0 0 0 0 0 0 0 0 0 0 0 0 0 0 0.25 0"/>
<feBlend mode="normal" in2="BackgroundImageFix" result="effect1_dropShadow_6_9"/>
<feBlend mode="normal" in="SourceGraphic" in2="effect1_dropShadow_6_9" result="shape"/>
</filter>
<linearGradient id="paint0_linear_6_9" x1="4.8" y1="-3.30187e-07" x2="24" y2="18.7" gradientUnits="userSpaceOnUse">
<stop offset="0.36412" stop-color="#7C04DB"/>
<stop offset="0.995451" stop-color="#7C04DB" stop-opacity="0"/>
</linearGradient>
</defs>
</svg>
