<svg width="44" height="44" viewBox="0 0 44 44" fill="none" xmlns="http://www.w3.org/2000/svg">
<path d="M21.54 0C9.64992 0 0 9.64992 0 21.54C0 33.4301 9.64992 43.08 21.54 43.08C33.4301 43.08 43.08 33.4301 43.08 21.54C43.08 9.64992 33.4301 0 21.54 0ZM28.9067 31.4053C28.5836 31.8577 28.0882 32.0731 27.5927 32.0731C27.2696 32.0731 26.9465 31.9654 26.645 31.7715C23.3278 29.4021 19.0844 28.8851 15.2934 30.3714C14.4749 30.6945 13.5271 30.2852 13.204 29.4667C12.8809 28.6267 13.2902 27.7004 14.1087 27.3773C18.9337 25.4603 24.3187 26.128 28.519 29.1436C29.2729 29.6821 29.4236 30.6945 28.9067 31.4053ZM31.2761 25.3957C30.953 25.848 30.4576 26.0634 29.9621 26.0634C29.639 26.0634 29.3159 25.9557 29.0144 25.7618C24.4479 22.4878 18.6106 21.7769 13.3764 23.8448C12.5578 24.1679 11.6101 23.7586 11.287 22.9401C10.9639 22.1 11.3731 21.1738 12.1916 20.8507C18.4382 18.3736 25.4387 19.2352 30.8884 23.1555C31.6207 23.6725 31.793 24.6848 31.2761 25.3957ZM34.6579 19.6229C34.3348 20.0753 33.8393 20.2907 33.3439 20.2907C33.0208 20.2907 32.6977 20.183 32.3962 19.9891C25.9772 15.3796 17.749 14.3672 10.4254 17.2966C9.5853 17.6197 8.65908 17.2104 8.33598 16.3919C8.01288 15.5734 8.42212 14.6257 9.24064 14.3026C17.5982 10.9854 26.9681 12.127 34.2917 17.3828C35.024 17.8782 35.1964 18.8906 34.6579 19.6229Z" fill="black"/>
</svg>
